Coordinates
version=1
nRows=28
nColumns=33
inDegrees=yes

Units are S.I. units (second, meters, Newtons, ...)
Angles are in degrees.

endheader
time	ground_thorax_rot_x	ground_thorax_rot_y	ground_thorax_rot_z	ground_thorax_tx	ground_thorax_ty	ground_thorax_tz	clav_prot_r	clav_elev_r	scapula_abduction_r	scapula_elevation_r	scapula_upward_rot_r	scapula_winging_r	shoulder_elv_r	plane_of_elev_r	axial_rot_r	elbow_flexion_r	pro_sup_r	wrist_flex_r	wrist_dev_r	clav_prot_l	clav_elev_l	scapula_abduction_l	scapula_elevation_l	scapula_upward_rot_l	scapula_winging_l	shoulder_elv_l	plane_of_elev_l	axial_rot_l	elbow_flexion_l	pro_sup_l	wrist_flex_l	wrist_dev_l	
6.8700	39.971445	8.560472	8.973170	-198.743526	835.603365	4.490494	14.561324	36.945064	39.294979	45.000000	-45.000000	-2964.756973	-4064.195688	142.311876	180.000000	1452.817871	45.677512	22.725954	9.371209	8.208739	-45.000000	-39.176257	45.000000	-45.000000	815.304088	-2969.965484	134.424971	-180.000000	731.108501	-331.827812	7.498582	-22.462974	
6.8800	39.999551	8.393978	8.734857	-200.461866	836.630569	4.565091	14.490018	36.909784	39.204715	45.000000	-45.000000	-2964.802367	-4064.127967	142.336877	180.000000	1452.821498	45.739536	22.739917	9.260952	8.255557	-45.000000	-39.227046	45.000000	-45.000000	815.443526	-2969.966546	134.476768	-180.000000	731.152396	-331.121098	7.351527	-22.546758	
6.8900	40.022072	8.232803	8.502915	-202.153399	837.627736	4.640312	14.417142	36.877515	39.110881	45.000000	-45.000000	-2964.843334	-4064.064619	142.364114	180.000000	1452.827013	45.835850	22.755939	9.145884	8.300185	-45.000000	-39.272270	45.000000	-45.000000	815.580271	-2969.969930	134.527961	-180.000000	731.196366	-330.366978	7.193568	-22.627044	
6.9000	40.040160	8.075657	8.275424	-203.819124	838.596989	4.715906	14.346312	36.843171	39.011349	45.000000	-45.000000	-2964.882824	-4064.003721	142.387528	180.000000	1452.836066	45.967927	22.771564	9.023960	8.344522	-45.000000	-39.311417	45.000000	-45.000000	815.715981	-2969.974609	134.575678	-180.000000	731.241650	-329.569810	7.026134	-22.703560	
6.9100	40.053026	7.925176	8.057941	-205.460633	839.540599	4.791437	14.272055	36.817501	38.908350	45.000000	-45.000000	-2964.917462	-4063.946109	142.415715	180.000000	1452.850302	46.136772	22.790400	8.899886	8.385476	-45.000000	-39.342179	45.000000	-45.000000	815.849141	-2969.982070	134.625030	-180.000000	731.287113	-328.737146	6.847196	-22.773471	
6.9200	40.060919	7.780799	7.849711	-207.079929	840.460844	4.866339	14.197867	36.795650	38.802227	45.000000	-45.000000	-2964.949130	-4063.891813	142.446546	180.000000	1452.869431	46.340558	22.808550	8.770525	8.425110	-45.000000	-39.366130	45.000000	-45.000000	815.981836	-2969.989577	134.674582	-180.000000	731.333853	-327.873581	6.659366	-22.837302	
6.9300	40.062561	7.642577	7.651078	-208.679117	841.359784	4.940088	14.120117	36.784205	38.695613	45.000000	-45.000000	-2964.975183	-4063.840972	142.484610	180.000000	1452.891115	46.577410	22.827287	8.639584	8.461578	-45.000000	-39.384202	45.000000	-45.000000	816.112262	-2969.994529	134.726630	-180.000000	731.379235	-326.985470	6.462510	-22.893244	
6.9400	40.060255	7.507458	7.457439	-210.260152	842.239028	5.012356	14.044860	36.769635	38.588046	45.000000	-45.000000	-2964.999947	-4063.791929	142.521465	180.000000	1452.911956	46.843026	22.840142	8.502108	8.499080	-45.000000	-39.399693	45.000000	-45.000000	816.243518	-2969.997920	134.776910	-180.000000	731.424293	-326.074656	6.261362	-22.943007	
6.9500	40.054058	7.371968	7.266568	-211.824720	843.099556	5.083132	13.969390	36.755977	38.481476	45.000000	-45.000000	-2965.021284	-4063.745646	142.557764	180.000000	1452.930857	47.134023	22.848077	8.361148	8.535779	-45.000000	-39.414316	45.000000	-45.000000	816.373684	-2970.000955	134.827700	-180.000000	731.465773	-325.145364	6.056548	-22.985997	
6.9600	40.045088	7.236065	7.075605	-213.374480	843.941727	5.152730	13.895782	36.740091	38.375904	45.000000	-45.000000	-2965.039263	-4063.702945	142.592737	180.000000	1452.943813	47.447135	22.849088	8.216668	8.572788	-45.000000	-39.430251	45.000000	-45.000000	816.502407	-2970.002213	134.877958	-180.000000	731.503751	-324.199919	5.850681	-23.023671	
6.9700	40.032290	7.097103	6.882672	-214.911320	844.765342	5.221713	13.823515	36.723769	38.271193	45.000000	-45.000000	-2965.051369	-4063.665191	142.625003	180.000000	1452.948598	47.780463	22.843417	8.070561	8.609259	-45.000000	-39.448362	45.000000	-45.000000	816.628294	-2970.002489	134.929244	-180.000000	731.535347	-323.239702	5.644973	-23.056605	
6.9800	40.018839	6.959080	6.689655	-216.437369	845.569629	5.290730	13.755140	36.703939	38.164858	45.000000	-45.000000	-2965.060668	-4063.631192	142.654138	180.000000	1452.946848	48.133151	22.830867	7.922422	8.646748	-45.000000	-39.467565	45.000000	-45.000000	816.752143	-2970.004723	134.981280	-180.000000	731.563477	-322.262908	5.440024	-23.086222	
6.9900	40.001572	6.816118	6.492483	-217.955034	846.353362	5.360381	13.689289	36.682531	38.056697	45.000000	-45.000000	-2965.065092	-4063.601473	142.675566	180.000000	1452.939445	48.504968	22.811949	7.772024	8.684047	-45.000000	-39.487807	45.000000	-45.000000	816.874191	-2970.006823	135.034470	-180.000000	731.586698	-321.268347	5.236702	-23.113621	
7.0000	39.987970	6.674045	6.293638	-219.466656	847.114895	5.431088	13.628960	36.656041	37.943857	45.000000	-45.000000	-2965.072172	-4063.570600	142.690081	180.000000	1452.930964	48.897179	22.787559	7.619501	8.722819	-45.000000	-39.507061	45.000000	-45.000000	816.994657	-2970.013961	135.085831	-180.000000	731.611078	-320.253001	5.034122	-23.140067	
7.0100	39.976574	6.531563	6.093193	-220.974123	847.852288	5.503015	13.573302	36.625162	37.826200	45.000000	-45.000000	-2965.080626	-4063.539413	142.697384	180.000000	1452.922747	49.311482	22.758069	7.464232	8.763058	-45.000000	-39.525521	45.000000	-45.000000	817.112999	-2970.028046	135.136571	-180.000000	731.635495	-319.212805	4.832555	-23.166113	
7.0200	39.971435	6.394947	5.897692	-222.478125	848.563347	5.575995	13.520753	36.592410	37.703868	45.000000	-45.000000	-2965.091954	-4063.506930	142.704918	180.000000	1452.919213	49.749332	22.726543	7.308313	8.804291	-45.000000	-39.540707	45.000000	-45.000000	817.228541	-2970.054111	135.188728	-180.000000	731.663612	-318.146769	4.629894	-23.191066	
7.0300	39.966336	6.258353	5.703280	-223.977948	849.245921	5.649492	13.467158	36.562214	37.579618	45.000000	-45.000000	-2965.098639	-4063.477768	142.713816	180.000000	1452.918280	50.210201	22.694241	7.152608	8.843986	-45.000000	-39.554058	45.000000	-45.000000	817.340542	-2970.087322	135.244156	-180.000000	731.692484	-317.059130	4.427782	-23.214964	
7.0400	39.965230	6.125953	5.512177	-225.471127	849.898086	5.722552	13.415129	36.530354	37.452380	45.000000	-45.000000	-2965.104018	-4063.450377	142.725243	180.000000	1452.920488	50.693507	22.661862	6.998925	8.883339	-45.000000	-39.564898	45.000000	-45.000000	817.448686	-2970.130013	135.300666	-180.000000	731.724961	-315.955954	4.226880	-23.237738	
7.0500	39.961900	5.995610	5.323094	-226.953680	850.518349	5.793821	13.362199	36.499634	37.323072	45.000000	-45.000000	-2965.102023	-4063.428317	142.739177	180.000000	1452.922336	51.198661	22.631132	6.849628	8.920920	-45.000000	-39.574229	45.000000	-45.000000	817.551929	-2970.176592	135.360036	-180.000000	731.756398	-314.845983	4.029012	-23.258524	
7.0600	39.957450	5.869128	5.137987	-228.420499	851.105684	5.861618	13.309610	36.468264	37.192283	45.000000	-45.000000	-2965.093989	-4063.410735	142.755979	180.000000	1452.924709	51.726244	22.604018	6.706343	8.957294	-45.000000	-39.581999	45.000000	-45.000000	817.650322	-2970.226474	135.420843	-180.000000	731.787120	-313.739056	3.835149	-23.276275	
7.0700	39.948238	5.743983	4.954202	-229.866009	851.659396	5.924121	13.255828	36.437499	37.059869	45.000000	-45.000000	-2965.076937	-4063.398444	142.773325	180.000000	1452.926058	52.277856	22.582057	6.569852	8.991195	-45.000000	-39.588232	45.000000	-45.000000	817.742684	-2970.274697	135.481561	-180.000000	731.813768	-312.646860	3.647429	-23.290566	
7.0800	39.938749	5.624336	4.775133	-231.284782	852.178797	5.979603	13.203776	36.403733	36.924351	45.000000	-45.000000	-2965.054898	-4063.389391	142.792054	180.000000	1452.930489	52.856698	22.566734	6.439305	9.024029	-45.000000	-39.591597	45.000000	-45.000000	817.828911	-2970.326224	135.539565	-180.000000	731.838957	-311.579057	3.466889	-23.301118	
7.0900	39.928836	5.510380	4.600169	-232.672096	852.662798	6.026718	13.152592	36.367274	36.784367	45.000000	-45.000000	-2965.028104	-4063.383095	142.811269	180.000000	1452.938874	53.465720	22.558839	6.312957	9.054965	-45.000000	-39.592093	45.000000	-45.000000	817.907213	-2970.379260	135.593660	-180.000000	731.860930	-310.544908	3.295036	-23.307777	
7.1000	39.917546	5.401791	4.432509	-234.024317	853.109595	6.064737	13.100221	36.331439	36.641465	45.000000	-45.000000	-2964.992579	-4063.382173	142.834758	180.000000	1452.950721	54.106105	22.560394	6.190777	9.082320	-45.000000	-39.589248	45.000000	-45.000000	817.977768	-2970.433530	135.645489	-180.000000	731.880503	-309.554690	3.132031	-23.309488	
7.1100	39.905097	5.298469	4.268498	-235.338825	853.516446	6.093702	13.046692	36.294611	36.492338	45.000000	-45.000000	-2964.951778	-4063.384100	142.858547	180.000000	1452.966958	54.772742	22.570096	6.069897	9.104672	-45.000000	-39.579929	45.000000	-45.000000	818.038554	-2970.483771	135.689778	-180.000000	731.895456	-308.619623	2.980198	-23.306860	
7.1200	39.890315	5.203282	4.118593	-236.613529	853.879696	6.114445	12.991761	36.259721	36.344646	45.000000	-45.000000	-2964.902496	-4063.394337	142.892311	180.000000	1452.983314	55.460175	22.588087	5.951681	9.122345	-45.000000	-39.569627	45.000000	-45.000000	818.093819	-2970.536956	135.735260	-180.000000	731.910639	-307.746531	2.838653	-23.299012	
7.1300	39.874461	5.113968	3.976447	-237.846171	854.195079	6.128515	12.936493	36.224836	36.192324	45.000000	-45.000000	-2964.848580	-4063.407208	142.926747	180.000000	1452.997599	56.157096	22.612834	5.835419	9.137046	-45.000000	-39.551576	45.000000	-45.000000	818.139560	-2970.585598	135.774406	-180.000000	731.922725	-306.939146	2.708710	-23.286468	
7.1400	39.857779	5.038350	3.862708	-239.033838	854.458288	6.137985	12.880379	36.192474	36.051395	45.000000	-45.000000	-2964.786531	-4063.436485	142.983176	180.000000	1453.006460	56.852141	22.641699	5.722941	9.147017	-45.000000	-39.539480	45.000000	-45.000000	818.184555	-2970.648285	135.825465	-180.000000	731.941371	-306.196557	2.587695	-23.269288	
